<?xml version="1.0" encoding="utf-8"?>
<!-- Generator: Adobe Illustrator 19.0.0, SVG Export Plug-In . SVG Version: 6.00 Build 0)  -->
<svg version="1.1" id="Layer_2" xmlns="http://www.w3.org/2000/svg" xmlns:xlink="http://www.w3.org/1999/xlink" x="0px" y="0px"
	 viewBox="-162 206.3 91.3 52" style="enable-background:new -162 206.3 91.3 52;" xml:space="preserve">
<style type="text/css">
	.st0{fill:#3B5CA0;}
</style>
<path class="st0" d="M-116.4,206.3c-25.2,0-45.6,26-45.6,26s20.4,26,45.6,26s45.7-26,45.7-26S-91.2,206.3-116.4,206.3z
	 M-116.4,253.3c-11.6,0-21-9.4-21-21c0-11.6,9.4-21,21-21s21,9.4,21,21S-104.8,253.3-116.4,253.3z"/>
<path class="st0" d="M-110,232.3c-3.3,0-6-2.7-6-6c0-1.9,0.9-3.6,2.2-4.7c-0.8-0.2-1.7-0.3-2.6-0.3c-6.1,0-11,4.9-11,11
	s4.9,11,11,11c6.1,0,11-4.9,11-11c0-0.7-0.1-1.3-0.2-2C-106.7,231.6-108.3,232.3-110,232.3z"/>
</svg>
