<svg xmlns="http://www.w3.org/2000/svg" viewBox="182 78.5 373 50.9"><style type="text/css">  
	.st0{fill:#FFFFFF;}
</style><path class="st0" d="M186.7 98.5h-3.5c-0.5 0-0.8-0.1-1-0.3 -0.1-0.1-0.2-0.4-0.2-0.8v-3.7c0-0.8 0.4-1.2 1.2-1.2h3.5c0.5 0 0.7-0.2 0.7-0.7v-6.6c0-0.8 0.4-1.2 1.3-1.2h4.5c0.8 0 1.2 0.4 1.2 1.2v6.5c0 0.5 0.3 0.7 0.8 0.7h6.7c0.9 0 1.3 0.4 1.3 1.2v3.7c0 0.8-0.4 1.2-1.3 1.2h-6.7c-0.5 0-0.8 0.2-0.8 0.7v18.5c0 3.5 1.8 5.3 5.4 5.3h2.8c0.9 0 1.3 0.4 1.3 1.2v3.7c0 0.8-0.4 1.2-1.3 1.2h-3.9c-3.6 0-6.3-1-8.4-2.9 -2-1.9-3-4.6-3-8.1V99.2C187.4 98.8 187.2 98.5 186.7 98.5z"/><path class="st0" d="M213 86.3v-6.6c0-0.8 0.4-1.2 1.2-1.2h4.7c0.8 0 1.2 0.4 1.2 1.2v6.6c-0.1 0.8-0.5 1.2-1.2 1.2h-4.7C213.4 87.5 213 87.1 213 86.3zM213 127.9V93.6c0-0.8 0.4-1.2 1.2-1.2h4.6c0.8 0 1.2 0.4 1.2 1.2v34.3c0 0.5-0.1 0.8-0.3 1 -0.2 0.2-0.5 0.3-0.9 0.3h-4.6C213.4 129.1 213 128.7 213 127.9z"/><path class="st0" d="M237 129.1h-4.5c-0.8 0-1.2-0.4-1.2-1.2V93.6c0-0.8 0.4-1.2 1.2-1.2h4.5c0.8 0 1.2 0.4 1.2 1.2v2.6h0.3c1.4-2.5 3.9-3.8 7.6-3.8h2.4c4.2 0 7.2 1.6 8.9 4.8 0.8-1.5 1.9-2.7 3.5-3.5 1.6-0.8 3.3-1.2 5.1-1.2h2.3c3.5 0 6.2 1 8 2.9 1.8 1.9 2.8 4.7 2.8 8.2v24.3c0 0.8-0.4 1.2-1.2 1.2h-4.6c-0.8 0-1.2-0.4-1.2-1.2v-24c0-3.6-1.7-5.3-5.2-5.3h-2.1c-4 0-6 2.1-6 6.3V128c0 0.8-0.4 1.2-1.3 1.2H253c-0.8 0-1.2-0.4-1.2-1.2v-24c0-3.6-1.7-5.3-5.2-5.3h-2.5c-3.9 0-5.9 2-5.9 6.1v23.3C238.2 128.7 237.8 129.1 237 129.1z"/><path class="st0" d="M315.7 129.1h-15.6c-3.6 0-6.3-1-8.2-3s-2.9-4.7-2.9-8.2v-14.3c0-3.6 1-6.3 2.9-8.2s4.7-2.9 8.2-2.9h5.9c3.6 0 6.3 1 8.3 2.9s3 4.7 3 8.2v9.1c0 0.9-0.4 1.3-1.3 1.3h-19.3c-0.5 0-0.8 0.2-0.8 0.7v3.1c0 3.5 1.8 5.3 5.3 5.3h14.5c0.9 0 1.3 0.4 1.3 1.3v3.6C317 128.7 316.6 129.1 315.7 129.1zM296.7 109.1h12.9c0.5 0 0.7-0.2 0.7-0.7v-4.6c0-1.8-0.4-3.2-1.2-4 -0.8-0.8-2.1-1.3-4-1.3h-4c-1.8 0-3.1 0.4-4 1.3 -0.8 0.8-1.2 2.2-1.2 4v4.6C296 108.9 296.2 109.1 296.7 109.1z"/><path class="st0" d="M349.3 124.2v3.7c0 0.8-0.4 1.2-1.3 1.2h-10.6c-3.6 0-6.3-1-8.2-3 -1.9-2-2.9-4.7-2.9-8.2v-14.3c0-3.6 1-6.3 2.9-8.2 1.9-1.9 4.7-2.9 8.2-2.9H348c0.9 0 1.3 0.4 1.3 1.2v3.7c0 0.8-0.4 1.2-1.3 1.2h-9.6c-3.5 0-5.2 1.8-5.2 5.3v13.8c0 3.6 1.7 5.3 5.2 5.3h9.6C348.9 123 349.3 123.4 349.3 124.2z"/><path class="st0" d="M371.2 129.1h-2.8c-3.6 0-6.3-1-8.2-3 -1.9-2-2.9-4.7-2.9-8.2v-14.3c0-3.6 1-6.3 2.9-8.2 1.9-1.9 4.7-2.9 8.2-2.9h16.1c0.9 0 1.3 0.4 1.3 1.2V128c0 0.8-0.4 1.2-1.3 1.2H380c-0.8 0-1.2-0.4-1.2-1.2v-2.6h-0.3C377.3 127.8 374.9 129.1 371.2 129.1zM378.8 116.9V99.2c0-0.5-0.3-0.7-0.8-0.7h-8.6c-3.5 0-5.2 1.8-5.2 5.3v13.8c0 3.6 1.7 5.3 5.2 5.3h3.5C376.8 123 378.8 121 378.8 116.9z"/><path class="st0" d="M402.4 129.1h-4.5c-0.8 0-1.2-0.4-1.2-1.2V93.6c0-0.8 0.4-1.2 1.2-1.2h4.5c0.8 0 1.2 0.4 1.2 1.2v2.7h0.3c0.5-1.2 1.4-2.2 2.8-2.9s2.9-1.1 4.6-1.1h2.7c0.8 0 1.2 0.4 1.2 1.2v3.7c0 0.9-0.4 1.3-1.2 1.2h-4.3c-4 0-6 2.2-6 6.6v22.8C403.6 128.7 403.2 129.1 402.4 129.1z"/><path class="st0" d="M436.2 129.1h-3.7c-3.5 0-6.1-1-8-2.9 -1.8-1.9-2.8-4.7-2.8-8.2v-14.4c0-3.6 0.9-6.4 2.8-8.3 1.8-1.9 4.5-2.9 8-2.9h3.7c3.7 0 6.1 1.3 7.2 3.8h0.3V79.7c0-0.8 0.4-1.2 1.2-1.2h4.6c0.8 0 1.2 0.4 1.2 1.2v48.2c0 0.8-0.4 1.2-1.2 1.2h-4.6c-0.8 0-1.2-0.4-1.2-1.2v-2.6h-0.3C442.3 127.8 439.9 129.1 436.2 129.1zM443.7 116.9v-12.3c0-4.1-2-6.1-5.9-6.1H434c-3.5 0-5.2 1.8-5.2 5.3v13.8c0 3.6 1.7 5.3 5.2 5.3h3.8C441.7 123 443.7 121 443.7 116.9z"/><path class="st0" d="M474.8 129.1l-0.8-2.3h-0.1c-0.8 1-1.7 1.7-2.5 2.1 -0.8 0.4-1.9 0.5-3.1 0.5 -1.7 0-3-0.4-3.9-1.3 -0.9-0.9-1.4-2.2-1.4-3.8 0-1.7 0.6-3 1.9-3.9s3.2-1.4 6-1.4l2.8-0.1V118c0-1-0.3-1.8-0.8-2.5 -0.5-0.5-1.3-0.8-2.3-0.8 -0.9 0-1.7 0.1-2.5 0.4s-1.6 0.5-2.3 0.9l-1.2-2.6c0.9-0.5 1.9-0.8 3-1 1-0.3 2.1-0.4 3.1-0.4 2.2 0 3.8 0.5 4.8 1.4s1.7 2.3 1.7 4.4v11.3C477.2 129.1 474.8 129.1 474.8 129.1zM469.5 126.7c1.3 0 2.3-0.4 3.1-1 0.8-0.8 1.2-1.7 1.2-3v-1.4l-2.2 0.1c-1.7 0-2.8 0.4-3.6 0.9s-1.2 1.3-1.2 2.3c0 0.8 0.3 1.3 0.6 1.7C467.9 126.6 468.6 126.7 469.5 126.7z"/><path class="st0" d="M488 129.4c-2.1 0-3.8-0.8-4.9-2.3s-1.8-3.6-1.8-6.3c0-2.7 0.6-4.9 1.8-6.5s2.8-2.3 4.9-2.3c2.2 0 3.9 0.8 5 2.5h0.1c-0.1-1.2-0.3-2.2-0.3-2.8v-6.1h3.6V129h-2.8l-0.6-2.2h-0.1C491.9 128.6 490.2 129.4 488 129.4zM489 126.6c1.4 0 2.6-0.4 3.2-1.3 0.6-0.8 1-2.2 1-4v-0.5c0-2.1-0.4-3.6-1-4.5 -0.6-0.9-1.8-1.3-3.2-1.3 -1.3 0-2.2 0.5-2.8 1.6s-1 2.5-1 4.4c0 1.8 0.4 3.2 1 4.3C486.8 126.2 487.7 126.6 489 126.6z"/><path class="st0" d="M515.9 129.1h-3.6v-10.4c0-1.3-0.3-2.2-0.8-2.8 -0.5-0.6-1.3-0.9-2.3-0.9 -1.4 0-2.3 0.4-3 1.3s-0.9 2.3-0.9 4.5v8.4h-3.5v-16.8h2.8l0.5 2.2h0.1c0.5-0.8 1.2-1.4 2.1-1.8 0.9-0.4 1.8-0.6 3-0.6 2.6 0 4.3 0.9 5.2 2.6h0.3c0.5-0.8 1.2-1.4 2.1-1.9 0.9-0.5 1.9-0.6 3.1-0.6 2.1 0 3.5 0.5 4.4 1.6 0.9 1 1.4 2.6 1.4 4.7v10.9h-3.6v-10.4c0-1.3-0.3-2.2-0.8-2.8 -0.5-0.6-1.3-0.9-2.3-0.9 -1.4 0-2.5 0.4-3.1 1.3s-0.9 2.2-0.9 4v8.7H515.9z"/><path class="st0" d="M531.3 107.9c0-0.6 0.1-1.2 0.5-1.4 0.4-0.3 0.9-0.5 1.6-0.5s1.2 0.1 1.4 0.5c0.3 0.4 0.5 0.8 0.5 1.4 0 0.6-0.1 1-0.5 1.4 -0.4 0.4-0.8 0.5-1.4 0.5s-1.2-0.1-1.6-0.5C531.4 109 531.3 108.6 531.3 107.9zM535.1 129.1h-3.5v-16.8h3.6v16.8H535.1z"/><path class="st0" d="M555 129.1h-3.6v-10.4c0-1.3-0.3-2.2-0.8-2.8 -0.5-0.6-1.3-0.9-2.5-0.9 -1.6 0-2.6 0.4-3.4 1.3 -0.6 0.9-1 2.3-1 4.5v8.4h-3.6v-16.8h2.8l0.5 2.2h0.1c0.5-0.8 1.2-1.4 2.2-1.8 0.9-0.4 1.9-0.6 3.1-0.6 4 0 6.1 2.1 6.1 6.1L555 129.1 555 129.1z"/></svg>