<?xml version="1.0" encoding="utf-8"?>
<!-- Generator: Adobe Illustrator 19.0.0, SVG Export Plug-In . SVG Version: 6.00 Build 0)  -->
<svg version="1.1" id="logo" xmlns="http://www.w3.org/2000/svg" xmlns:xlink="http://www.w3.org/1999/xlink" x="0px" y="0px"
	 viewBox="0 0 268.8 50.6" style="enable-background:new 0 0 268.8 50.6;" xml:space="preserve">
<style type="text/css">
	.st0{fill:#FFFFFF;}
</style>
<g id="XMLID_14_">
	<path id="XMLID_15_" class="st0" d="M4.7,20H1.2c-0.5,0-0.8-0.1-1-0.3C0.1,19.6,0,19.3,0,18.9v-3.7c0-0.8,0.4-1.2,1.2-1.2h3.5
		c0.5,0,0.7-0.2,0.7-0.7V6.7c0-0.8,0.4-1.2,1.3-1.2h4.5c0.8,0,1.2,0.4,1.2,1.2v6.5c0,0.5,0.3,0.7,0.8,0.7h6.7c0.9,0,1.3,0.4,1.3,1.2
		v3.7c0,0.8-0.4,1.2-1.3,1.2h-6.7c-0.5,0-0.8,0.2-0.8,0.7v18.5c0,3.5,1.8,5.3,5.4,5.3h2.8c0.9,0,1.3,0.4,1.3,1.2v3.7
		c0,0.8-0.4,1.2-1.3,1.2h-3.9c-3.6,0-6.3-1-8.4-2.9c-2-1.9-3-4.6-3-8.1V20.7C5.4,20.3,5.2,20,4.7,20z"/>
	<path id="XMLID_17_" class="st0" d="M31,7.8V1.2c0-0.8,0.4-1.2,1.2-1.2h4.7c0.8,0,1.2,0.4,1.2,1.2v6.6C38,8.6,37.6,9,36.9,9h-4.7
		C31.4,9,31,8.6,31,7.8z M31,49.4V15.1c0-0.8,0.4-1.2,1.2-1.2h4.6c0.8,0,1.2,0.4,1.2,1.2v34.3c0,0.5-0.1,0.8-0.3,1
		c-0.2,0.2-0.5,0.3-0.9,0.3h-4.6C31.4,50.6,31,50.2,31,49.4z"/>
	<path id="XMLID_20_" class="st0" d="M55,50.6h-4.5c-0.8,0-1.2-0.4-1.2-1.2V15.1c0-0.8,0.4-1.2,1.2-1.2H55c0.8,0,1.2,0.4,1.2,1.2
		v2.6h0.3c1.4-2.5,3.9-3.8,7.6-3.8h2.4c4.2,0,7.2,1.6,8.9,4.8c0.8-1.5,1.9-2.7,3.5-3.5c1.6-0.8,3.3-1.2,5.1-1.2h2.3
		c3.5,0,6.2,1,8,2.9c1.8,1.9,2.8,4.7,2.8,8.2v24.3c0,0.8-0.4,1.2-1.2,1.2h-4.6c-0.8,0-1.2-0.4-1.2-1.2v-24c0-3.6-1.7-5.3-5.2-5.3
		h-2.1c-4,0-6,2.1-6,6.3v23.1c0,0.8-0.4,1.2-1.3,1.2h-4.5c-0.8,0-1.2-0.4-1.2-1.2v-24c0-3.6-1.7-5.3-5.2-5.3h-2.5
		c-3.9,0-5.9,2-5.9,6.1v23.3C56.2,50.2,55.8,50.6,55,50.6z"/>
	<path id="XMLID_22_" class="st0" d="M133.7,50.6h-15.6c-3.6,0-6.3-1-8.2-3c-1.9-2-2.9-4.7-2.9-8.2V25.1c0-3.6,1-6.3,2.9-8.2
		c1.9-1.9,4.7-2.9,8.2-2.9h5.9c3.6,0,6.3,1,8.3,2.9c2,1.9,3,4.7,3,8.2v9.1c0,0.9-0.4,1.3-1.3,1.3h-19.3c-0.5,0-0.8,0.2-0.8,0.7v3.1
		c0,3.5,1.8,5.3,5.3,5.3h14.5c0.9,0,1.3,0.4,1.3,1.3v3.6C135,50.2,134.6,50.6,133.7,50.6z M114.7,30.6h12.9c0.5,0,0.7-0.2,0.7-0.7
		v-4.6c0-1.8-0.4-3.2-1.2-4c-0.8-0.8-2.1-1.3-4-1.3h-4c-1.8,0-3.1,0.4-4,1.3c-0.8,0.8-1.2,2.2-1.2,4v4.6
		C114,30.4,114.2,30.6,114.7,30.6z"/>
	<path id="XMLID_25_" class="st0" d="M167.3,45.7v3.7c0,0.8-0.4,1.2-1.3,1.2h-10.6c-3.6,0-6.3-1-8.2-3c-1.9-2-2.9-4.7-2.9-8.2V25.1
		c0-3.6,1-6.3,2.9-8.2c1.9-1.9,4.7-2.9,8.2-2.9H166c0.9,0,1.3,0.4,1.3,1.2v3.7c0,0.8-0.4,1.2-1.3,1.2h-9.6c-3.5,0-5.2,1.8-5.2,5.3
		v13.8c0,3.6,1.7,5.3,5.2,5.3h9.6C166.9,44.5,167.3,44.9,167.3,45.7z"/>
	<path id="XMLID_27_" class="st0" d="M189.2,50.6h-2.8c-3.6,0-6.3-1-8.2-3c-1.9-2-2.9-4.7-2.9-8.2V25.1c0-3.6,1-6.3,2.9-8.2
		c1.9-1.9,4.7-2.9,8.2-2.9h16.1c0.9,0,1.3,0.4,1.3,1.2v34.3c0,0.8-0.4,1.2-1.3,1.2H198c-0.8,0-1.2-0.4-1.2-1.2v-2.6h-0.3
		C195.3,49.3,192.9,50.6,189.2,50.6z M196.8,38.4V20.7c0-0.5-0.3-0.7-0.8-0.7h-8.6c-3.5,0-5.2,1.8-5.2,5.3v13.8
		c0,3.6,1.7,5.3,5.2,5.3h3.5C194.8,44.5,196.8,42.5,196.8,38.4z"/>
	<path id="XMLID_30_" class="st0" d="M220.4,50.6h-4.5c-0.8,0-1.2-0.4-1.2-1.2V15.1c0-0.8,0.4-1.2,1.2-1.2h4.5
		c0.8,0,1.2,0.4,1.2,1.2v2.7h0.3c0.5-1.2,1.4-2.2,2.8-2.9c1.4-0.7,2.9-1.1,4.6-1.1h2.7c0.8,0,1.2,0.4,1.2,1.2v3.7
		c0,0.9-0.4,1.3-1.2,1.2h-4.3c-4,0-6,2.2-6,6.6v22.8C221.6,50.2,221.2,50.6,220.4,50.6z"/>
	<path id="XMLID_32_" class="st0" d="M254.2,50.6h-3.7c-3.5,0-6.1-1-8-2.9c-1.8-1.9-2.8-4.7-2.8-8.2V25.1c0-3.6,0.9-6.4,2.8-8.3
		c1.8-1.9,4.5-2.9,8-2.9h3.7c3.7,0,6.1,1.3,7.2,3.8h0.3V1.2c0-0.8,0.4-1.2,1.2-1.2h4.6c0.8,0,1.2,0.4,1.2,1.2v48.2
		c0,0.8-0.4,1.2-1.2,1.2h-4.6c-0.8,0-1.2-0.4-1.2-1.2v-2.6h-0.3C260.3,49.3,257.9,50.6,254.2,50.6z M261.7,38.4V26.1
		c0-4.1-2-6.1-5.9-6.1H252c-3.5,0-5.2,1.8-5.2,5.3v13.8c0,3.6,1.7,5.3,5.2,5.3h3.8C259.7,44.5,261.7,42.5,261.7,38.4z"/>
</g>
</svg>
